<svg width="21" height="25" viewBox="0 0 21 25" fill="none" xmlns="http://www.w3.org/2000/svg">
<path fill-rule="evenodd" clip-rule="evenodd" d="M12.851 6.60155C13.0384 6.83544 13.1437 7.15262 13.1437 7.48334C13.1437 7.81406 13.0384 8.13124 12.851 8.36512L9.55796 12.4722L12.851 16.5793C12.9465 16.6944 13.0227 16.832 13.0751 16.9842C13.1275 17.1363 13.1551 17.3 13.1562 17.4656C13.1574 17.6312 13.1321 17.7955 13.0818 17.9487C13.0315 18.102 12.9572 18.2413 12.8634 18.3584C12.7695 18.4755 12.6578 18.5681 12.5349 18.6308C12.412 18.6935 12.2803 18.7251 12.1476 18.7236C12.0148 18.7222 11.8836 18.6878 11.7616 18.6224C11.6396 18.557 11.5292 18.462 11.437 18.3429L7.43696 13.354C7.24949 13.1201 7.14418 12.8029 7.14418 12.4722C7.14418 12.1415 7.24949 11.8243 7.43696 11.5904L11.437 6.60155C11.6245 6.36773 11.8788 6.23638 12.144 6.23638C12.4091 6.23638 12.6634 6.36773 12.851 6.60155Z" fill="black"/>
</svg>
