<svg width="30" height="30" viewBox="0 0 30 30" fill="none" xmlns="http://www.w3.org/2000/svg">
<path fill-rule="evenodd" clip-rule="evenodd" d="M15 27C18.1826 27 21.2348 25.7357 23.4853 23.4853C25.7357 21.2348 27 18.1826 27 15C27 11.8174 25.7357 8.76516 23.4853 6.51472C21.2348 4.26428 18.1826 3 15 3C11.8174 3 8.76516 4.26428 6.51472 6.51472C4.26428 8.76516 3 11.8174 3 15C3 18.1826 4.26428 21.2348 6.51472 23.4853C8.76516 25.7357 11.8174 27 15 27ZM13.0605 10.9395C12.7776 10.6663 12.3987 10.5151 12.0054 10.5185C11.6121 10.5219 11.2359 10.6797 10.9578 10.9578C10.6797 11.2359 10.5219 11.6121 10.5185 12.0054C10.5151 12.3987 10.6663 12.7776 10.9395 13.0605L12.879 15L10.9395 16.9395C10.7962 17.0779 10.682 17.2434 10.6033 17.4264C10.5247 17.6094 10.4834 17.8062 10.4816 18.0054C10.4799 18.2046 10.5178 18.4021 10.5933 18.5864C10.6687 18.7708 10.7801 18.9383 10.9209 19.0791C11.0617 19.2199 11.2292 19.3313 11.4136 19.4067C11.5979 19.4822 11.7954 19.5201 11.9946 19.5184C12.1938 19.5166 12.3906 19.4753 12.5736 19.3967C12.7566 19.318 12.9221 19.2038 13.0605 19.0605L15 17.121L16.9395 19.0605C17.2224 19.3337 17.6013 19.4849 17.9946 19.4815C18.3879 19.4781 18.7641 19.3203 19.0422 19.0422C19.3203 18.7641 19.4781 18.3879 19.4815 17.9946C19.4849 17.6013 19.3337 17.2224 19.0605 16.9395L17.121 15L19.0605 13.0605C19.3337 12.7776 19.4849 12.3987 19.4815 12.0054C19.4781 11.6121 19.3203 11.2359 19.0422 10.9578C18.7641 10.6797 18.3879 10.5219 17.9946 10.5185C17.6013 10.5151 17.2224 10.6663 16.9395 10.9395L15 12.879L13.0605 10.9395Z" fill="black"/>
</svg>
