<svg width="37" height="37" viewBox="0 0 37 37" fill="none" xmlns="http://www.w3.org/2000/svg">
<path d="M27.4524 5.53415L18.6848 14.3017C18.2318 14.7541 17.9228 15.3305 17.7969 15.9582L17.797 19.2075L20.833 18.8713C21.4606 18.7458 22.0363 18.4381 22.4894 17.9849L31.0922 9.06785C31.3557 8.80438 31.5647 8.4916 31.7072 8.14736C31.8498 7.80313 31.9232 7.43417 31.9232 7.06157C31.9232 6.68897 31.8498 6.32002 31.7072 5.97579C31.5647 5.63155 31.7284 5.79762 31.465 5.53415C31.2015 5.27068 30.8887 5.06169 30.5445 4.9191C30.2002 4.77651 29.8313 4.70312 29.4587 4.70312C29.0861 4.70313 28.7171 4.77651 28.3729 4.9191C28.0287 5.06169 27.7159 5.27068 27.4524 5.53415Z" stroke="#716E68" stroke-width="1.98606" stroke-linecap="round" stroke-linejoin="round"/>
<path d="M29.2373 17.4884V27.6666C29.2373 28.4787 28.9147 29.2575 28.3405 29.8317C27.7663 30.4059 26.9875 30.7285 26.1754 30.7285H9.33528C8.52323 30.7285 7.74444 30.4059 7.17023 29.8317C6.59602 29.2575 6.27344 28.4787 6.27344 27.6666V10.8265C6.27344 10.0144 6.59602 9.23565 7.17023 8.66144C7.74444 8.08723 8.52323 7.76465 9.33528 7.76465H18.5205" stroke="#716E68" stroke-width="1.98606" stroke-linecap="round" stroke-linejoin="round"/>
</svg>
