<svg width="108" height="49" viewBox="0 0 108 49" fill="none" xmlns="http://www.w3.org/2000/svg">
<path d="M17.188 18.2383V10.0783H21.652C21.668 10.1983 21.684 10.3183 21.7 10.4383C21.716 10.5583 21.736 10.6783 21.76 10.7983H18.136V13.7143H20.488C20.504 13.8343 20.52 13.9543 20.536 14.0743C20.552 14.1943 20.572 14.3143 20.596 14.4343H18.136V17.4943H22L22.108 18.2383H17.188ZM26.033 18.2143C25.945 18.2543 25.817 18.2983 25.649 18.3463C25.489 18.3943 25.321 18.4183 25.145 18.4183C24.649 18.4183 24.249 18.2743 23.945 17.9863C23.649 17.6983 23.501 17.2783 23.501 16.7263V13.2343H22.673L22.661 12.5143H23.501V11.0383L24.461 10.7623V12.5143H25.517L25.829 13.2343H24.461V16.5943C24.461 16.8903 24.525 17.1343 24.653 17.3263C24.781 17.5103 24.993 17.6023 25.289 17.6023C25.377 17.6023 25.473 17.5903 25.577 17.5663C25.681 17.5343 25.761 17.5063 25.817 17.4823L26.033 18.2143ZM27.8474 16.5823C27.8474 16.8303 27.9314 17.0663 28.0994 17.2903C28.2754 17.5143 28.5554 17.6263 28.9394 17.6263C29.2754 17.6263 29.5834 17.5423 29.8634 17.3743C30.1434 17.2063 30.3834 17.0063 30.5834 16.7743V15.4423H29.0474C28.6554 15.4423 28.3554 15.5583 28.1474 15.7903C27.9474 16.0143 27.8474 16.2783 27.8474 16.5823ZM27.3434 12.7783C27.5674 12.6263 27.8834 12.5023 28.2914 12.4063C28.6994 12.3103 29.0234 12.2623 29.2634 12.2623C29.9354 12.2623 30.4794 12.4463 30.8954 12.8143C31.3194 13.1743 31.5314 13.6463 31.5314 14.2303V18.2383H30.9554L30.7034 17.6503C30.5034 17.8343 30.2434 18.0023 29.9234 18.1543C29.6034 18.3063 29.2834 18.3823 28.9634 18.3823C28.2914 18.3823 27.7914 18.2143 27.4634 17.8783C27.1354 17.5343 26.9714 17.1023 26.9714 16.5823C26.9714 16.0063 27.1634 15.5703 27.5474 15.2743C27.9394 14.9703 28.4474 14.8183 29.0714 14.8183H30.5714C30.5714 14.3383 30.4954 13.9303 30.3434 13.5943C30.1914 13.2583 29.8434 13.0903 29.2994 13.0903C28.9074 13.0903 28.5834 13.1343 28.3274 13.2223C28.0714 13.3103 27.8354 13.4023 27.6194 13.4983C27.5794 13.3783 27.5354 13.2583 27.4874 13.1383C27.4394 13.0183 27.3914 12.8983 27.3434 12.7783ZM34.3143 16.9783C34.5383 17.1783 34.7743 17.3303 35.0223 17.4343C35.2783 17.5383 35.5183 17.5903 35.7423 17.5903C36.3663 17.5903 36.8103 17.3703 37.0743 16.9303C37.3383 16.4903 37.4703 15.9583 37.4703 15.3343C37.4703 14.6863 37.3423 14.1463 37.0863 13.7143C36.8303 13.2743 36.3823 13.0543 35.7423 13.0543C35.5183 13.0543 35.2783 13.1103 35.0223 13.2223C34.7743 13.3263 34.5383 13.4783 34.3143 13.6783V16.9783ZM33.3663 20.8663V12.4183H33.9303L34.1463 12.9343C34.3943 12.7423 34.6743 12.5823 34.9863 12.4543C35.3063 12.3183 35.6063 12.2503 35.8863 12.2503C36.7423 12.2503 37.3783 12.5423 37.7943 13.1263C38.2103 13.7103 38.4183 14.4423 38.4183 15.3223C38.4183 16.2103 38.2063 16.9423 37.7823 17.5183C37.3663 18.0943 36.7343 18.3823 35.8863 18.3823C35.6303 18.3823 35.3623 18.3343 35.0823 18.2383C34.8023 18.1343 34.5463 17.9943 34.3143 17.8183V20.7343L33.3663 20.8663ZM40.5153 16.5823C40.5153 16.8303 40.5993 17.0663 40.7673 17.2903C40.9433 17.5143 41.2233 17.6263 41.6073 17.6263C41.9433 17.6263 42.2513 17.5423 42.5313 17.3743C42.8113 17.2063 43.0513 17.0063 43.2513 16.7743V15.4423H41.7153C41.3233 15.4423 41.0233 15.5583 40.8153 15.7903C40.6153 16.0143 40.5153 16.2783 40.5153 16.5823ZM40.0113 12.7783C40.2353 12.6263 40.5513 12.5023 40.9593 12.4063C41.3673 12.3103 41.6913 12.2623 41.9313 12.2623C42.6033 12.2623 43.1473 12.4463 43.5633 12.8143C43.9873 13.1743 44.1993 13.6463 44.1993 14.2303V18.2383H43.6233L43.3713 17.6503C43.1713 17.8343 42.9113 18.0023 42.5913 18.1543C42.2713 18.3063 41.9513 18.3823 41.6313 18.3823C40.9593 18.3823 40.4593 18.2143 40.1313 17.8783C39.8033 17.5343 39.6393 17.1023 39.6393 16.5823C39.6393 16.0063 39.8313 15.5703 40.2153 15.2743C40.6073 14.9703 41.1153 14.8183 41.7393 14.8183H43.2393C43.2393 14.3383 43.1633 13.9303 43.0113 13.5943C42.8593 13.2583 42.5113 13.0903 41.9673 13.0903C41.5753 13.0903 41.2513 13.1343 40.9953 13.2223C40.7393 13.3103 40.5033 13.4023 40.2873 13.4983C40.2473 13.3783 40.2033 13.2583 40.1553 13.1383C40.1073 13.0183 40.0593 12.8983 40.0113 12.7783Z" fill="#716E68"/>
<path d="M32 33.2383C32 37.6566 28.4183 41.2383 24 41.2383C19.5817 41.2383 16 37.6566 16 33.2383C16 28.82 19.5817 25.2383 24 25.2383C28.4183 25.2383 32 28.82 32 33.2383ZM17.1018 33.2383C17.1018 37.0481 20.1902 40.1365 24 40.1365C27.8098 40.1365 30.8982 37.0481 30.8982 33.2383C30.8982 29.4285 27.8098 26.34 24 26.34C20.1902 26.34 17.1018 29.4285 17.1018 33.2383Z" fill="#716E68"/>
<ellipse cx="24" cy="33.2383" rx="6" ry="6" transform="rotate(90 24 33.2383)" fill="#716E68"/>
<path d="M45.68 30.9743C46.8853 30.9743 47.7227 31.2783 48.192 31.8863C48.672 32.4836 48.912 33.1289 48.912 33.8223C48.912 34.4409 48.7253 35.0169 48.352 35.5503C47.9893 36.0836 47.4187 36.6756 46.64 37.3263L44.848 38.8463H49.104L49.328 40.2383H42.496V38.9903L45.664 36.1743C46.2827 35.6303 46.6987 35.1929 46.912 34.8623C47.136 34.5209 47.2533 34.1743 47.264 33.8223C47.264 33.4276 47.1253 33.1023 46.848 32.8463C46.5707 32.5796 46.1707 32.4463 45.648 32.4463C45.2213 32.4463 44.7627 32.5849 44.272 32.8623C43.7813 33.1396 43.52 33.2836 43.488 33.2943L42.704 32.0463C42.9387 31.8756 43.3067 31.6569 43.808 31.3903C44.32 31.1129 44.944 30.9743 45.68 30.9743ZM58.4521 33.7423C57.6841 33.7423 57.1508 34.0143 56.8521 34.5583C56.5535 35.0916 56.4041 35.6783 56.4041 36.3183C56.4041 37.0116 56.5428 37.6143 56.8201 38.1263C57.1081 38.6383 57.6521 38.8943 58.4521 38.8943C58.7188 38.8943 58.9961 38.8356 59.2841 38.7183C59.5828 38.5903 59.8601 38.4303 60.1161 38.2383V34.3983C59.8601 34.1956 59.5828 34.0356 59.2841 33.9183C58.9961 33.8009 58.7188 33.7423 58.4521 33.7423ZM61.9401 28.9423V40.2383H60.9641L60.4681 39.5023C60.1268 39.8009 59.7268 40.0303 59.2681 40.1903C58.8095 40.3503 58.3881 40.4303 58.0041 40.4303C56.8735 40.4303 56.0095 40.0409 55.4121 39.2623C54.8255 38.4729 54.5321 37.4916 54.5321 36.3183C54.5321 35.1449 54.8415 34.1689 55.4601 33.3903C56.0895 32.6009 56.9641 32.2063 58.0841 32.2063C58.3828 32.2063 58.7188 32.2649 59.0921 32.3823C59.4655 32.4889 59.8068 32.6436 60.1161 32.8463V29.1183L61.9401 28.9423ZM71.0778 36.8463H65.7018C65.7764 37.4543 66.0058 37.9503 66.3898 38.3343C66.7738 38.7183 67.3178 38.9103 68.0218 38.9103C68.4271 38.9103 68.7791 38.8623 69.0778 38.7663C69.3764 38.6703 69.6964 38.5423 70.0378 38.3823C70.1338 38.5956 70.2244 38.8143 70.3098 39.0383C70.4058 39.2623 70.4964 39.4809 70.5818 39.6943C70.2298 39.9503 69.7924 40.1369 69.2698 40.2543C68.7471 40.3716 68.3204 40.4303 67.9898 40.4303C66.6671 40.4303 65.6378 40.0623 64.9018 39.3263C64.1658 38.5796 63.7978 37.5929 63.7978 36.3663C63.7978 35.1396 64.1391 34.1529 64.8218 33.4063C65.5044 32.6489 66.4324 32.2703 67.6058 32.2703C68.9391 32.2703 69.8511 32.7343 70.3418 33.6623C70.8324 34.5796 71.0778 35.6409 71.0778 36.8463ZM69.3498 35.6303C69.2431 35.0543 69.0404 34.6116 68.7418 34.3023C68.4538 33.9823 68.0591 33.8223 67.5578 33.8223C67.0458 33.8223 66.6298 33.9823 66.3098 34.3023C66.0004 34.6223 65.8084 35.0649 65.7338 35.6303H69.3498ZM79.18 30.9743C80.3853 30.9743 81.2227 31.2783 81.692 31.8863C82.172 32.4836 82.412 33.1289 82.412 33.8223C82.412 34.4409 82.2253 35.0169 81.852 35.5503C81.4893 36.0836 80.9187 36.6756 80.14 37.3263L78.348 38.8463H82.604L82.828 40.2383H75.996V38.9903L79.164 36.1743C79.7827 35.6303 80.1987 35.1929 80.412 34.8623C80.636 34.5209 80.7533 34.1743 80.764 33.8223C80.764 33.4276 80.6253 33.1023 80.348 32.8463C80.0707 32.5796 79.6707 32.4463 79.148 32.4463C78.7213 32.4463 78.2627 32.5849 77.772 32.8623C77.2813 33.1396 77.02 33.2836 76.988 33.2943L76.204 32.0463C76.4387 31.8756 76.8067 31.6569 77.308 31.3903C77.82 31.1129 78.444 30.9743 79.18 30.9743Z" fill="#716E68"/>
<rect x="1" y="1.23828" width="106" height="46" rx="5" stroke="#716E68" stroke-width="2"/>
</svg>
