<svg width="108" height="49" viewBox="0 0 108 49" fill="none" xmlns="http://www.w3.org/2000/svg">
<path d="M17.6724 18.5469V10.3869H22.1364C22.1524 10.5069 22.1684 10.6269 22.1844 10.7469C22.2004 10.8669 22.2204 10.9869 22.2444 11.1069H18.6204V14.0229H20.9724C20.9884 14.1429 21.0044 14.2629 21.0204 14.3829C21.0364 14.5029 21.0564 14.6229 21.0804 14.7429H18.6204V17.8029H22.4844L22.5924 18.5469H17.6724ZM26.5174 18.5229C26.4294 18.5629 26.3014 18.6069 26.1334 18.6549C25.9734 18.7029 25.8054 18.7269 25.6294 18.7269C25.1334 18.7269 24.7334 18.5829 24.4294 18.2949C24.1334 18.0069 23.9854 17.5869 23.9854 17.0349V13.5429H23.1574L23.1454 12.8229H23.9854V11.3469L24.9454 11.0709V12.8229H26.0014L26.3134 13.5429H24.9454V16.9029C24.9454 17.1989 25.0094 17.4429 25.1374 17.6349C25.2654 17.8189 25.4774 17.9109 25.7734 17.9109C25.8614 17.9109 25.9574 17.8989 26.0614 17.8749C26.1654 17.8429 26.2454 17.8149 26.3014 17.7909L26.5174 18.5229ZM28.3318 16.8909C28.3318 17.1389 28.4158 17.3749 28.5838 17.5989C28.7598 17.8229 29.0398 17.9349 29.4238 17.9349C29.7598 17.9349 30.0678 17.8509 30.3478 17.6829C30.6278 17.5149 30.8678 17.3149 31.0678 17.0829V15.7509H29.5318C29.1398 15.7509 28.8398 15.8669 28.6318 16.0989C28.4318 16.3229 28.3318 16.5869 28.3318 16.8909ZM27.8278 13.0869C28.0518 12.9349 28.3678 12.8109 28.7758 12.7149C29.1838 12.6189 29.5078 12.5709 29.7478 12.5709C30.4198 12.5709 30.9638 12.7549 31.3798 13.1229C31.8038 13.4829 32.0158 13.9549 32.0158 14.5389V18.5469H31.4398L31.1878 17.9589C30.9878 18.1429 30.7278 18.3109 30.4078 18.4629C30.0878 18.6149 29.7678 18.6909 29.4478 18.6909C28.7758 18.6909 28.2758 18.5229 27.9478 18.1869C27.6198 17.8429 27.4558 17.4109 27.4558 16.8909C27.4558 16.3149 27.6478 15.8789 28.0318 15.5829C28.4238 15.2789 28.9318 15.1269 29.5558 15.1269H31.0558C31.0558 14.6469 30.9798 14.2389 30.8278 13.9029C30.6758 13.5669 30.3278 13.3989 29.7838 13.3989C29.3918 13.3989 29.0678 13.4429 28.8118 13.5309C28.5558 13.6189 28.3198 13.7109 28.1038 13.8069C28.0638 13.6869 28.0198 13.5669 27.9718 13.4469C27.9238 13.3269 27.8758 13.2069 27.8278 13.0869ZM34.7986 17.2869C35.0226 17.4869 35.2586 17.6389 35.5066 17.7429C35.7626 17.8469 36.0026 17.8989 36.2266 17.8989C36.8506 17.8989 37.2946 17.6789 37.5586 17.2389C37.8226 16.7989 37.9546 16.2669 37.9546 15.6429C37.9546 14.9949 37.8266 14.4549 37.5706 14.0229C37.3146 13.5829 36.8666 13.3629 36.2266 13.3629C36.0026 13.3629 35.7626 13.4189 35.5066 13.5309C35.2586 13.6349 35.0226 13.7869 34.7986 13.9869V17.2869ZM33.8506 21.1749V12.7269H34.4146L34.6306 13.2429C34.8786 13.0509 35.1586 12.8909 35.4706 12.7629C35.7906 12.6269 36.0906 12.5589 36.3706 12.5589C37.2266 12.5589 37.8626 12.8509 38.2786 13.4349C38.6946 14.0189 38.9026 14.7509 38.9026 15.6309C38.9026 16.5189 38.6906 17.2509 38.2666 17.8269C37.8506 18.4029 37.2186 18.6909 36.3706 18.6909C36.1146 18.6909 35.8466 18.6429 35.5666 18.5469C35.2866 18.4429 35.0306 18.3029 34.7986 18.1269V21.0429L33.8506 21.1749ZM40.9997 16.8909C40.9997 17.1389 41.0837 17.3749 41.2517 17.5989C41.4277 17.8229 41.7077 17.9349 42.0917 17.9349C42.4277 17.9349 42.7357 17.8509 43.0157 17.6829C43.2957 17.5149 43.5357 17.3149 43.7357 17.0829V15.7509H42.1997C41.8077 15.7509 41.5077 15.8669 41.2997 16.0989C41.0997 16.3229 40.9997 16.5869 40.9997 16.8909ZM40.4957 13.0869C40.7197 12.9349 41.0357 12.8109 41.4437 12.7149C41.8517 12.6189 42.1757 12.5709 42.4157 12.5709C43.0877 12.5709 43.6317 12.7549 44.0477 13.1229C44.4717 13.4829 44.6837 13.9549 44.6837 14.5389V18.5469H44.1077L43.8557 17.9589C43.6557 18.1429 43.3957 18.3109 43.0757 18.4629C42.7557 18.6149 42.4357 18.6909 42.1157 18.6909C41.4437 18.6909 40.9437 18.5229 40.6157 18.1869C40.2877 17.8429 40.1237 17.4109 40.1237 16.8909C40.1237 16.3149 40.3157 15.8789 40.6997 15.5829C41.0917 15.2789 41.5997 15.1269 42.2237 15.1269H43.7237C43.7237 14.6469 43.6477 14.2389 43.4957 13.9029C43.3437 13.5669 42.9957 13.3989 42.4517 13.3989C42.0597 13.3989 41.7357 13.4429 41.4797 13.5309C41.2237 13.6189 40.9877 13.7109 40.7717 13.8069C40.7317 13.6869 40.6877 13.5669 40.6397 13.4469C40.5917 13.3269 40.5437 13.2069 40.4957 13.0869Z" fill="#716E68"/>
<path d="M32.4844 33.5469C32.4844 37.9652 28.9027 41.5469 24.4844 41.5469C20.0661 41.5469 16.4844 37.9652 16.4844 33.5469C16.4844 29.1286 20.0661 25.5469 24.4844 25.5469C28.9027 25.5469 32.4844 29.1286 32.4844 33.5469ZM17.5861 33.5469C17.5861 37.3567 20.6746 40.4451 24.4844 40.4451C28.2942 40.4451 31.3826 37.3567 31.3826 33.5469C31.3826 29.7371 28.2942 26.6486 24.4844 26.6486C20.6746 26.6486 17.5861 29.7371 17.5861 33.5469Z" fill="#716E68"/>
<path d="M24.4844 39.5469C23.6964 39.5469 22.9162 39.3917 22.1883 39.0902C21.4603 38.7886 20.7989 38.3467 20.2417 37.7895C19.6846 37.2324 19.2426 36.5709 18.9411 35.843C18.6396 35.115 18.4844 34.3348 18.4844 33.5469C18.4844 32.7589 18.6396 31.9787 18.9411 31.2508C19.2426 30.5228 19.6846 29.8614 20.2417 29.3042C20.7989 28.7471 21.4603 28.3051 22.1883 28.0036C22.9162 27.7021 23.6964 27.5469 24.4844 27.5469L24.4844 33.5469L24.4844 39.5469Z" fill="#716E68"/>
<path d="M48.5004 40.5469H43.6684L43.5244 39.2669H45.2524V33.5869L44.3244 34.1629C44.1857 33.9602 44.0417 33.7575 43.8924 33.5549C43.7537 33.3415 43.615 33.1335 43.4764 32.9309L45.8604 31.4909H47.0604V39.2669H48.3404C48.3724 39.4802 48.399 39.6989 48.4204 39.9229C48.4524 40.1362 48.479 40.3442 48.5004 40.5469ZM57.749 34.0509C56.981 34.0509 56.4477 34.3229 56.149 34.8669C55.8503 35.4002 55.701 35.9869 55.701 36.6269C55.701 37.3202 55.8397 37.9229 56.117 38.4349C56.405 38.9469 56.949 39.2029 57.749 39.2029C58.0157 39.2029 58.293 39.1442 58.581 39.0269C58.8797 38.8989 59.157 38.7389 59.413 38.5469V34.7069C59.157 34.5042 58.8797 34.3442 58.581 34.2269C58.293 34.1095 58.0157 34.0509 57.749 34.0509ZM61.237 29.2509V40.5469H60.261L59.765 39.8109C59.4237 40.1095 59.0237 40.3389 58.565 40.4989C58.1063 40.6589 57.685 40.7389 57.301 40.7389C56.1703 40.7389 55.3063 40.3495 54.709 39.5709C54.1223 38.7815 53.829 37.8002 53.829 36.6269C53.829 35.4535 54.1383 34.4775 54.757 33.6989C55.3863 32.9095 56.261 32.5149 57.381 32.5149C57.6797 32.5149 58.0157 32.5735 58.389 32.6909C58.7623 32.7975 59.1037 32.9522 59.413 33.1549V29.4269L61.237 29.2509ZM70.3746 37.1549H64.9986C65.0733 37.7629 65.3026 38.2589 65.6866 38.6429C66.0706 39.0269 66.6146 39.2189 67.3186 39.2189C67.724 39.2189 68.076 39.1709 68.3746 39.0749C68.6733 38.9789 68.9933 38.8509 69.3346 38.6909C69.4306 38.9042 69.5213 39.1229 69.6066 39.3469C69.7026 39.5709 69.7933 39.7895 69.8786 40.0029C69.5266 40.2589 69.0893 40.4455 68.5666 40.5629C68.044 40.6802 67.6173 40.7389 67.2866 40.7389C65.964 40.7389 64.9346 40.3709 64.1986 39.6349C63.4626 38.8882 63.0946 37.9015 63.0946 36.6749C63.0946 35.4482 63.436 34.4615 64.1186 33.7149C64.8013 32.9575 65.7293 32.5789 66.9026 32.5789C68.236 32.5789 69.148 33.0429 69.6386 33.9709C70.1293 34.8882 70.3746 35.9495 70.3746 37.1549ZM68.6466 35.9389C68.54 35.3629 68.3373 34.9202 68.0386 34.6109C67.7506 34.2909 67.356 34.1309 66.8546 34.1309C66.3426 34.1309 65.9266 34.2909 65.6066 34.6109C65.2973 34.9309 65.1053 35.3735 65.0306 35.9389H68.6466ZM78.4769 31.2829C79.6822 31.2829 80.5195 31.5869 80.9889 32.1949C81.4689 32.7922 81.7089 33.4375 81.7089 34.1309C81.7089 34.7495 81.5222 35.3255 81.1489 35.8589C80.7862 36.3922 80.2155 36.9842 79.4369 37.6349L77.6449 39.1549H81.9009L82.1249 40.5469H75.2929V39.2989L78.4609 36.4829C79.0795 35.9389 79.4955 35.5015 79.7089 35.1709C79.9329 34.8295 80.0502 34.4829 80.0609 34.1309C80.0609 33.7362 79.9222 33.4109 79.6449 33.1549C79.3675 32.8882 78.9675 32.7549 78.4449 32.7549C78.0182 32.7549 77.5595 32.8935 77.0689 33.1709C76.5782 33.4482 76.3169 33.5922 76.2849 33.6029L75.5009 32.3549C75.7355 32.1842 76.1035 31.9655 76.6049 31.6989C77.1169 31.4215 77.7409 31.2829 78.4769 31.2829Z" fill="#716E68"/>
<rect x="1.48438" y="1.54688" width="105" height="46" rx="5" stroke="#716E68" stroke-width="2"/>
</svg>
