<svg width="27" height="24" viewBox="0 0 27 24" fill="none" xmlns="http://www.w3.org/2000/svg">
<path d="M15.2628 3.05987L15.2623 3.06035L14.2235 4.14783L13.5004 4.90477L12.7773 4.14783L11.7385 3.06035L11.7373 3.05915C9.41308 0.618068 5.71453 0.286169 3.27618 2.39694L15.2628 3.05987ZM15.2628 3.05987C17.5929 0.617481 21.2866 0.286509 23.7246 2.39694L15.2628 3.05987ZM24.1723 12.0883L24.1725 12.0881C26.7538 9.38201 26.5973 4.88828 23.7248 2.39708L24.1723 12.0883ZM24.1723 12.0883L13.9686 22.7915C13.9685 22.7916 13.9684 22.7916 13.9684 22.7917C13.7032 23.0694 13.2923 23.0694 13.0271 22.7917C13.0271 22.7916 13.027 22.7916 13.0269 22.7915L2.82364 12.0888M24.1723 12.0883L2.82364 12.0888M2.82364 12.0888L2.82323 12.0883C0.246884 9.38209 0.403566 4.88822 3.27602 2.39708L2.82364 12.0888Z" stroke="#7FA492" stroke-width="2"/>
</svg>
