<svg width="36" height="37" viewBox="0 0 36 37" fill="none" xmlns="http://www.w3.org/2000/svg">
<path fill-rule="evenodd" clip-rule="evenodd" d="M1.5 4.757C1.5 4.0258 1.79047 3.32455 2.30751 2.80751C2.82454 2.29047 3.5258 2 4.257 2H31.74C32.1024 1.99941 32.4613 2.0703 32.7962 2.2086C33.1311 2.34691 33.4355 2.54992 33.6919 2.80601C33.9482 3.0621 34.1516 3.36624 34.2903 3.70102C34.4289 4.0358 34.5002 4.39464 34.5 4.757V32.24C34.5004 32.6024 34.4293 32.9614 34.2909 33.2963C34.1524 33.6313 33.9492 33.9356 33.693 34.192C33.4368 34.4483 33.1326 34.6516 32.7977 34.7903C32.4628 34.9289 32.1039 35.0002 31.7415 35H4.257C3.89482 35 3.53619 34.9286 3.2016 34.79C2.867 34.6513 2.56301 34.4481 2.30698 34.192C2.05095 33.9358 1.8479 33.6317 1.70943 33.297C1.57097 32.9624 1.4998 32.6037 1.5 32.2415V4.757ZM14.562 14.582H19.0305V16.826C19.6755 15.536 21.3255 14.375 23.805 14.375C28.5585 14.375 29.685 16.9445 29.685 21.659V30.392H24.8745V22.733C24.8745 20.048 24.2295 18.533 22.5915 18.533C20.319 18.533 19.374 20.1665 19.374 22.733V30.392H14.562V14.582ZM6.312 30.1865H11.124V14.375H6.312V30.185V30.1865ZM11.8125 9.218C11.8216 9.63001 11.7483 10.0397 11.5969 10.423C11.4455 10.8063 11.219 11.1555 10.9308 11.4501C10.6427 11.7446 10.2985 11.9787 9.91868 12.1385C9.53882 12.2983 9.13086 12.3806 8.71875 12.3806C8.30664 12.3806 7.89868 12.2983 7.51882 12.1385C7.13895 11.9787 6.79483 11.7446 6.50665 11.4501C6.21847 11.1555 5.99204 10.8063 5.84064 10.423C5.68924 10.0397 5.61593 9.63001 5.625 9.218C5.64281 8.40929 5.97658 7.63969 6.55483 7.07403C7.13308 6.50838 7.90984 6.19163 8.71875 6.19163C9.52767 6.19163 10.3044 6.50838 10.8827 7.07403C11.4609 7.63969 11.7947 8.40929 11.8125 9.218Z" fill="#716E68"/>
</svg>
