<svg width="25" height="24" viewBox="0 0 25 24" fill="none" xmlns="http://www.w3.org/2000/svg">
<path d="M10.4406 7.7C10.348 7.79152 10.2744 7.90052 10.2242 8.02068C10.174 8.14084 10.1482 8.26977 10.1482 8.4C10.1482 8.53022 10.174 8.65915 10.2242 8.77931C10.2744 8.89948 10.348 9.00848 10.4406 9.1L12.3406 11H3.14062C2.59062 11 2.14062 11.45 2.14062 12C2.14062 12.55 2.59062 13 3.14062 13H12.3406L10.4406 14.9C10.348 14.9915 10.2744 15.1005 10.2242 15.2207C10.174 15.3408 10.1482 15.4698 10.1482 15.6C10.1482 15.7302 10.174 15.8592 10.2242 15.9793C10.2744 16.0995 10.348 16.2085 10.4406 16.3C10.8306 16.69 11.4506 16.69 11.8406 16.3L15.4306 12.71C15.5233 12.6175 15.5969 12.5076 15.6471 12.3866C15.6972 12.2657 15.7231 12.136 15.7231 12.005C15.7231 11.874 15.6972 11.7443 15.6471 11.6234C15.5969 11.5024 15.5233 11.3925 15.4306 11.3L11.8406 7.7C11.7491 7.60736 11.6401 7.53381 11.5199 7.48361C11.3998 7.43341 11.2709 7.40756 11.1406 7.40756C11.0104 7.40756 10.8815 7.43341 10.7613 7.48361C10.6411 7.53381 10.5321 7.60736 10.4406 7.7ZM20.1406 19H13.1406C12.5906 19 12.1406 19.45 12.1406 20C12.1406 20.55 12.5906 21 13.1406 21H20.1406C21.2406 21 22.1406 20.1 22.1406 19V5C22.1406 3.9 21.2406 3 20.1406 3H13.1406C12.5906 3 12.1406 3.45 12.1406 4C12.1406 4.55 12.5906 5 13.1406 5H20.1406V19Z" fill="white"/>
</svg>
