<svg width="21" height="21" viewBox="0 0 21 21" fill="none" xmlns="http://www.w3.org/2000/svg">
<path fill-rule="evenodd" clip-rule="evenodd" d="M10.9122 3.771C11.1755 3.771 11.4281 3.87562 11.6143 4.06185C11.8006 4.24808 11.9052 4.50066 11.9052 4.76403V9.72918H16.8703C17.1337 9.72918 17.3863 9.83381 17.5725 10.02C17.7588 10.2063 17.8634 10.4588 17.8634 10.7222C17.8634 10.9856 17.7588 11.2382 17.5725 11.4244C17.3863 11.6106 17.1337 11.7152 16.8703 11.7152H11.9052V16.6804C11.9052 16.9438 11.8006 17.1964 11.6143 17.3826C11.4281 17.5688 11.1755 17.6734 10.9122 17.6734C10.6488 17.6734 10.3962 17.5688 10.21 17.3826C10.0237 17.1964 9.91912 16.9438 9.91912 16.6804V11.7152H4.95397C4.6906 11.7152 4.43802 11.6106 4.25179 11.4244C4.06556 11.2382 3.96094 10.9856 3.96094 10.7222C3.96094 10.4588 4.06556 10.2063 4.25179 10.02C4.43802 9.83381 4.6906 9.72918 4.95397 9.72918H9.91912V4.76403C9.91912 4.50066 10.0237 4.24808 10.21 4.06185C10.3962 3.87562 10.6488 3.771 10.9122 3.771Z" fill="white"/>
</svg>
