<svg width="20" height="21" viewBox="0 0 20 21" fill="none" xmlns="http://www.w3.org/2000/svg">
<path fill-rule="evenodd" clipRule="evenodd" d="M12.7069 5.79279C12.8944 5.98031 12.9997 6.23462 12.9997 6.49979C12.9997 6.76495 12.8944 7.01926 12.7069 7.20679L9.41392 10.4998L12.7069 13.7928C12.8024 13.885 12.8786 13.9954 12.931 14.1174C12.9834 14.2394 13.011 14.3706 13.0122 14.5034C13.0133 14.6362 12.988 14.7678 12.9377 14.8907C12.8875 15.0136 12.8132 15.1253 12.7193 15.2192C12.6254 15.3131 12.5138 15.3873 12.3909 15.4376C12.268 15.4879 12.1363 15.5132 12.0035 15.512C11.8707 15.5109 11.7395 15.4833 11.6175 15.4309C11.4955 15.3785 11.3852 15.3023 11.2929 15.2068L7.29292 11.2068C7.10545 11.0193 7.00013 10.765 7.00013 10.4998C7.00013 10.2346 7.10545 9.98031 7.29292 9.79279L11.2929 5.79279C11.4804 5.60532 11.7348 5.5 11.9999 5.5C12.2651 5.5 12.5194 5.60532 12.7069 5.79279Z" fill="#5F5F5F"/>
</svg>
