<svg width="11" height="19" viewBox="0 0 11 19" fill="none" xmlns="http://www.w3.org/2000/svg">
<path d="M2.15155 0.375011L10.5765 8.77501C10.6765 8.87501 10.7475 8.98335 10.7895 9.10001C10.8315 9.21668 10.8522 9.34168 10.8515 9.47501C10.8515 9.60835 10.8309 9.73335 10.7895 9.85001C10.7482 9.96668 10.6772 10.075 10.5765 10.175L2.15155 18.6C1.91821 18.8333 1.62655 18.95 1.27655 18.95C0.926547 18.95 0.626548 18.825 0.376548 18.575C0.126548 18.325 0.00154781 18.0333 0.00154781 17.7C0.00154781 17.3667 0.126548 17.075 0.376548 16.825L7.72655 9.47501L0.376548 2.12501C0.143214 1.89168 0.0265474 1.60401 0.0265474 1.26201C0.0265474 0.920012 0.151547 0.624345 0.401547 0.375011C0.651547 0.125011 0.943214 1.14441e-05 1.27655 1.14441e-05C1.60988 1.14441e-05 1.90155 0.125011 2.15155 0.375011Z" fill="white"/>
</svg>
