<svg width="16" height="16" viewBox="0 0 16 16" fill="none" xmlns="http://www.w3.org/2000/svg">
<path d="M8.68507 0.00022925L9.287 0.0754309C10.2096 0.191915 11.1039 0.471862 11.928 0.902426C12.6391 1.26861 13.2949 1.73333 13.876 2.28272C13.9399 2.34353 13.9687 2.3307 14.0361 2.28272C14.505 1.95156 14.9773 1.62376 15.4543 1.3022C15.5526 1.23369 15.6797 1.2222 15.7888 1.27174C15.8978 1.32128 15.9726 1.42471 15.9856 1.54376C15.9893 1.59709 15.9893 1.65054 15.9856 1.70376V4.52696C15.9856 5.53628 15.9952 6.54402 16 7.55325C16 7.91152 15.7888 8.05065 15.443 7.93394C14.3769 7.57724 13.3078 7.22532 12.2417 6.86862C11.4926 6.61913 10.7436 6.36473 10.0009 6.11203L9.66638 6.00324C9.54178 5.96665 9.44933 5.86143 9.42912 5.73323C9.40891 5.60492 9.46452 5.47649 9.57193 5.40341C9.94807 5.15069 10.3194 4.88838 10.6923 4.6292C10.8524 4.52198 10.9997 4.41006 11.1726 4.2869C11.0781 4.21649 11.0028 4.15568 10.9229 4.10135C9.97364 3.45967 8.82699 3.17638 7.6878 3.30168C6.83535 3.38938 6.02109 3.70034 5.32715 4.203C4.63337 4.70577 4.08438 5.38235 3.7359 6.16485C3.37604 6.96696 3.26451 7.85822 3.41569 8.72418C3.61454 9.9764 4.31938 11.0919 5.36534 11.8096C6.34196 12.5233 7.55483 12.837 8.75554 12.6861C9.38704 12.6272 10 12.4409 10.5575 12.1385C11.1148 11.836 11.6051 11.4238 11.9984 10.9266C12.0657 10.8435 12.1233 10.7522 12.1874 10.6658C12.2575 10.5537 12.3727 10.4773 12.5035 10.4564C12.6342 10.4355 12.7676 10.4723 12.8692 10.5572L14.862 11.9136C14.9518 11.9733 15.0137 12.0667 15.0339 12.1725C15.054 12.2784 15.0308 12.388 14.9693 12.4766C14.3558 13.3611 13.5732 14.1154 12.6666 14.6963C11.7601 15.2773 10.7475 15.6731 9.68714 15.8612C7.77176 16.2175 5.79218 15.8826 4.10094 14.9159C2.3 13.9073 0.954265 12.2472 0.341165 10.2772C0.0922955 9.47059 -0.0218066 8.62863 0.00343197 7.78501C0.0274369 6.69035 0.287919 5.61385 0.766905 4.62905C1.28217 3.54798 2.03369 2.59636 2.9662 1.84423C4.02645 0.980647 5.28686 0.397098 6.63165 0.147168C6.94383 0.0895958 7.26224 0.0640431 7.57599 0.0239887C7.61608 0.0176287 7.65292 0 7.68653 0L8.68507 0.00022925Z" fill="black"/>
</svg>
