<svg width="33" height="33" viewBox="0 0 33 33" fill="none" xmlns="http://www.w3.org/2000/svg">
<path fill-rule="evenodd" clip-rule="evenodd" d="M14.6112 3.45654C14.3162 3.4567 14.0271 3.53898 13.7762 3.69416C13.5254 3.84934 13.3227 4.0713 13.1908 4.33518L12.0405 6.63424H6.66697C6.24559 6.63424 5.84146 6.80164 5.54349 7.09961C5.24552 7.39757 5.07813 7.8017 5.07812 8.22309C5.07813 8.64448 5.24552 9.04861 5.54349 9.34658C5.84146 9.64455 6.24559 9.81194 6.66697 9.81194V25.7004C6.66697 26.5432 7.00177 27.3515 7.5977 27.9474C8.19364 28.5434 9.0019 28.8781 9.84467 28.8781H22.5555C23.3983 28.8781 24.2065 28.5434 24.8024 27.9474C25.3984 27.3515 25.7332 26.5432 25.7332 25.7004V9.81194C26.1546 9.81194 26.5587 9.64455 26.8567 9.34658C27.1546 9.04861 27.322 8.64448 27.322 8.22309C27.322 7.8017 27.1546 7.39757 26.8567 7.09961C26.5587 6.80164 26.1546 6.63424 25.7332 6.63424H20.3597L19.2094 4.33518C19.0775 4.0713 18.8748 3.84934 18.6239 3.69416C18.373 3.53898 18.0839 3.4567 17.7889 3.45654H14.6112ZM11.4335 12.9896C11.4335 12.5683 11.6009 12.1641 11.8989 11.8662C12.1969 11.5682 12.601 11.4008 13.0224 11.4008C13.4438 11.4008 13.8479 11.5682 14.1459 11.8662C14.4438 12.1641 14.6112 12.5683 14.6112 12.9896V22.5227C14.6112 22.9441 14.4438 23.3483 14.1459 23.6462C13.8479 23.9442 13.4438 24.1116 13.0224 24.1116C12.601 24.1116 12.1969 23.9442 11.8989 23.6462C11.6009 23.3483 11.4335 22.9441 11.4335 22.5227V12.9896ZM19.3778 11.4008C18.9564 11.4008 18.5523 11.5682 18.2543 11.8662C17.9563 12.1641 17.7889 12.5683 17.7889 12.9896V22.5227C17.7889 22.9441 17.9563 23.3483 18.2543 23.6462C18.5523 23.9442 18.9564 24.1116 19.3778 24.1116C19.7992 24.1116 20.2033 23.9442 20.5013 23.6462C20.7992 23.3483 20.9666 22.9441 20.9666 22.5227V12.9896C20.9666 12.5683 20.7992 12.1641 20.5013 11.8662C20.2033 11.5682 19.7992 11.4008 19.3778 11.4008Z" fill="#716E68"/>
</svg>
